<mxfile host="app.diagrams.net" modified="2024-07-05T19:58:56.128Z" agent="Mozilla/5.0 (Windows NT 10.0; Win64; x64; rv:127.0) Gecko/20100101 Firefox/127.0" etag="W1NLRzaAUdcyn6zdMU7W" version="24.6.4" type="device">
  <diagram name="Page-1" id="5WqxM8SN-_Db1KV46QjK">
    <mxGraphModel dx="3450" dy="2542" grid="1" gridSize="10" guides="1" tooltips="1" connect="1" arrows="1" fold="1" page="1" pageScale="1" pageWidth="850" pageHeight="1100" math="0" shadow="0">
      <root>
        <mxCell id="0" />
        <mxCell id="1" parent="0" />
        <mxCell id="JzMBPSNkwDdgUZxuRiRF-47" value="" style="rounded=0;whiteSpace=wrap;html=1;" parent="1" vertex="1">
          <mxGeometry x="-397.5" y="-470" width="717.5" height="460" as="geometry" />
        </mxCell>
        <mxCell id="UbQ19MGZ-QVVBDmHauCY-3" style="edgeStyle=orthogonalEdgeStyle;rounded=0;orthogonalLoop=1;jettySize=auto;html=1;entryX=0;entryY=0.5;entryDx=0;entryDy=0;fillColor=#d5e8d4;strokeColor=#82b366;" edge="1" parent="1" source="JzMBPSNkwDdgUZxuRiRF-48" target="UbQ19MGZ-QVVBDmHauCY-1">
          <mxGeometry relative="1" as="geometry" />
        </mxCell>
        <mxCell id="UbQ19MGZ-QVVBDmHauCY-5" value="4" style="edgeLabel;html=1;align=center;verticalAlign=middle;resizable=0;points=[];" vertex="1" connectable="0" parent="UbQ19MGZ-QVVBDmHauCY-3">
          <mxGeometry x="-0.1849" relative="1" as="geometry">
            <mxPoint x="11" as="offset" />
          </mxGeometry>
        </mxCell>
        <mxCell id="JzMBPSNkwDdgUZxuRiRF-48" value="sep search service" style="whiteSpace=wrap;html=1;aspect=fixed;fillColor=#d5e8d4;strokeColor=#82b366;" parent="1" vertex="1">
          <mxGeometry x="47.5" y="-260" width="80" height="80" as="geometry" />
        </mxCell>
        <mxCell id="JzMBPSNkwDdgUZxuRiRF-49" style="edgeStyle=orthogonalEdgeStyle;rounded=0;orthogonalLoop=1;jettySize=auto;html=1;entryX=0;entryY=0.5;entryDx=0;entryDy=0;fillColor=#d5e8d4;strokeColor=#82b366;exitX=0.486;exitY=1.014;exitDx=0;exitDy=0;exitPerimeter=0;" parent="1" source="JzMBPSNkwDdgUZxuRiRF-77" target="JzMBPSNkwDdgUZxuRiRF-51" edge="1">
          <mxGeometry relative="1" as="geometry">
            <mxPoint x="-397.5" y="-310" as="sourcePoint" />
            <Array as="points" />
          </mxGeometry>
        </mxCell>
        <mxCell id="JzMBPSNkwDdgUZxuRiRF-50" value="0" style="edgeLabel;html=1;align=center;verticalAlign=middle;resizable=0;points=[];" parent="JzMBPSNkwDdgUZxuRiRF-49" vertex="1" connectable="0">
          <mxGeometry x="-0.0809" relative="1" as="geometry">
            <mxPoint as="offset" />
          </mxGeometry>
        </mxCell>
        <mxCell id="JzMBPSNkwDdgUZxuRiRF-51" value="sep&amp;nbsp;product service" style="whiteSpace=wrap;html=1;aspect=fixed;fillColor=#d5e8d4;strokeColor=#82b366;" parent="1" vertex="1">
          <mxGeometry x="-282.5" y="-260" width="80" height="80" as="geometry" />
        </mxCell>
        <mxCell id="JzMBPSNkwDdgUZxuRiRF-52" style="edgeStyle=orthogonalEdgeStyle;rounded=0;orthogonalLoop=1;jettySize=auto;html=1;entryX=1;entryY=0.5;entryDx=0;entryDy=0;fillColor=#d5e8d4;strokeColor=#82b366;" parent="1" source="JzMBPSNkwDdgUZxuRiRF-54" target="JzMBPSNkwDdgUZxuRiRF-51" edge="1">
          <mxGeometry relative="1" as="geometry" />
        </mxCell>
        <mxCell id="UbQ19MGZ-QVVBDmHauCY-8" value="5" style="edgeLabel;html=1;align=center;verticalAlign=middle;resizable=0;points=[];" vertex="1" connectable="0" parent="JzMBPSNkwDdgUZxuRiRF-52">
          <mxGeometry x="0.0188" y="1" relative="1" as="geometry">
            <mxPoint as="offset" />
          </mxGeometry>
        </mxCell>
        <mxCell id="UbQ19MGZ-QVVBDmHauCY-2" style="edgeStyle=orthogonalEdgeStyle;rounded=0;orthogonalLoop=1;jettySize=auto;html=1;entryX=0;entryY=0.75;entryDx=0;entryDy=0;fillColor=#d5e8d4;strokeColor=#82b366;" edge="1" parent="1" source="JzMBPSNkwDdgUZxuRiRF-54" target="UbQ19MGZ-QVVBDmHauCY-1">
          <mxGeometry relative="1" as="geometry">
            <Array as="points">
              <mxPoint x="-20" y="-200" />
              <mxPoint x="-20" y="-150" />
              <mxPoint x="200" y="-150" />
              <mxPoint x="200" y="-200" />
            </Array>
          </mxGeometry>
        </mxCell>
        <mxCell id="UbQ19MGZ-QVVBDmHauCY-4" value="&lt;div&gt;Get access token&lt;/div&gt;" style="edgeLabel;html=1;align=center;verticalAlign=middle;resizable=0;points=[];" vertex="1" connectable="0" parent="UbQ19MGZ-QVVBDmHauCY-2">
          <mxGeometry x="-0.4657" y="-1" relative="1" as="geometry">
            <mxPoint x="22" y="9" as="offset" />
          </mxGeometry>
        </mxCell>
        <mxCell id="UbQ19MGZ-QVVBDmHauCY-9" value="4" style="edgeLabel;html=1;align=center;verticalAlign=middle;resizable=0;points=[];" vertex="1" connectable="0" parent="UbQ19MGZ-QVVBDmHauCY-2">
          <mxGeometry x="-0.3785" y="-1" relative="1" as="geometry">
            <mxPoint as="offset" />
          </mxGeometry>
        </mxCell>
        <mxCell id="JzMBPSNkwDdgUZxuRiRF-54" value="sep payment service" style="whiteSpace=wrap;html=1;aspect=fixed;fillColor=#d5e8d4;strokeColor=#82b366;" parent="1" vertex="1">
          <mxGeometry x="-117.5" y="-260" width="80" height="80" as="geometry" />
        </mxCell>
        <mxCell id="JzMBPSNkwDdgUZxuRiRF-55" value="Mongo" style="shape=cylinder3;whiteSpace=wrap;html=1;boundedLbl=1;backgroundOutline=1;size=15;fillColor=#fad9d5;strokeColor=#ae4132;" parent="1" vertex="1">
          <mxGeometry x="-107.5" y="-430" width="60" height="80" as="geometry" />
        </mxCell>
        <mxCell id="JzMBPSNkwDdgUZxuRiRF-56" value="Elastic" style="shape=cylinder3;whiteSpace=wrap;html=1;boundedLbl=1;backgroundOutline=1;size=15;fillColor=#fad9d5;strokeColor=#ae4132;" parent="1" vertex="1">
          <mxGeometry x="57.5" y="-430" width="60" height="80" as="geometry" />
        </mxCell>
        <mxCell id="JzMBPSNkwDdgUZxuRiRF-57" value="MySql" style="shape=cylinder3;whiteSpace=wrap;html=1;boundedLbl=1;backgroundOutline=1;size=15;fillColor=#fad9d5;strokeColor=#ae4132;" parent="1" vertex="1">
          <mxGeometry x="-272.5" y="-430" width="60" height="80" as="geometry" />
        </mxCell>
        <mxCell id="JzMBPSNkwDdgUZxuRiRF-58" style="edgeStyle=orthogonalEdgeStyle;rounded=0;orthogonalLoop=1;jettySize=auto;html=1;entryX=0.5;entryY=1;entryDx=0;entryDy=0;exitX=1;exitY=0.5;exitDx=0;exitDy=0;exitPerimeter=0;dashed=1;fillColor=#dae8fc;strokeColor=#6c8ebf;" parent="1" source="JzMBPSNkwDdgUZxuRiRF-82" target="JzMBPSNkwDdgUZxuRiRF-54" edge="1">
          <mxGeometry relative="1" as="geometry" />
        </mxCell>
        <mxCell id="JzMBPSNkwDdgUZxuRiRF-59" value="3" style="edgeLabel;html=1;align=center;verticalAlign=middle;resizable=0;points=[];" parent="JzMBPSNkwDdgUZxuRiRF-58" vertex="1" connectable="0">
          <mxGeometry x="-0.0031" y="1" relative="1" as="geometry">
            <mxPoint x="1" y="-5" as="offset" />
          </mxGeometry>
        </mxCell>
        <mxCell id="JzMBPSNkwDdgUZxuRiRF-60" value="product.created&lt;div&gt;product.updated&lt;/div&gt;" style="edgeLabel;html=1;align=center;verticalAlign=middle;resizable=0;points=[];" parent="JzMBPSNkwDdgUZxuRiRF-58" vertex="1" connectable="0">
          <mxGeometry x="-0.4092" relative="1" as="geometry">
            <mxPoint y="2" as="offset" />
          </mxGeometry>
        </mxCell>
        <mxCell id="JzMBPSNkwDdgUZxuRiRF-61" style="edgeStyle=orthogonalEdgeStyle;rounded=0;orthogonalLoop=1;jettySize=auto;html=1;entryX=0.5;entryY=1;entryDx=0;entryDy=0;exitX=0.993;exitY=0.876;exitDx=0;exitDy=0;exitPerimeter=0;dashed=1;fillColor=#dae8fc;strokeColor=#6c8ebf;" parent="1" source="JzMBPSNkwDdgUZxuRiRF-82" target="JzMBPSNkwDdgUZxuRiRF-48" edge="1">
          <mxGeometry relative="1" as="geometry">
            <Array as="points" />
          </mxGeometry>
        </mxCell>
        <mxCell id="JzMBPSNkwDdgUZxuRiRF-62" value="product.created&lt;div&gt;product.updated&lt;/div&gt;" style="edgeLabel;html=1;align=center;verticalAlign=middle;resizable=0;points=[];" parent="JzMBPSNkwDdgUZxuRiRF-61" vertex="1" connectable="0">
          <mxGeometry x="-0.4057" relative="1" as="geometry">
            <mxPoint y="3" as="offset" />
          </mxGeometry>
        </mxCell>
        <mxCell id="JzMBPSNkwDdgUZxuRiRF-63" value="3" style="edgeLabel;html=1;align=center;verticalAlign=middle;resizable=0;points=[];" parent="JzMBPSNkwDdgUZxuRiRF-61" vertex="1" connectable="0">
          <mxGeometry x="0.2645" y="1" relative="1" as="geometry">
            <mxPoint x="1" y="9" as="offset" />
          </mxGeometry>
        </mxCell>
        <mxCell id="JzMBPSNkwDdgUZxuRiRF-64" style="edgeStyle=orthogonalEdgeStyle;rounded=0;orthogonalLoop=1;jettySize=auto;html=1;entryX=1;entryY=0.125;entryDx=0;entryDy=0;entryPerimeter=0;dashed=1;fillColor=#dae8fc;strokeColor=#6c8ebf;" parent="1" source="JzMBPSNkwDdgUZxuRiRF-51" target="JzMBPSNkwDdgUZxuRiRF-82" edge="1">
          <mxGeometry relative="1" as="geometry" />
        </mxCell>
        <mxCell id="JzMBPSNkwDdgUZxuRiRF-65" value="product.created&lt;div&gt;product.updated&lt;/div&gt;" style="edgeLabel;html=1;align=center;verticalAlign=middle;resizable=0;points=[];" parent="JzMBPSNkwDdgUZxuRiRF-64" vertex="1" connectable="0">
          <mxGeometry x="-0.052" relative="1" as="geometry">
            <mxPoint y="28" as="offset" />
          </mxGeometry>
        </mxCell>
        <mxCell id="JzMBPSNkwDdgUZxuRiRF-66" value="2" style="edgeLabel;html=1;align=center;verticalAlign=middle;resizable=0;points=[];" parent="JzMBPSNkwDdgUZxuRiRF-64" vertex="1" connectable="0">
          <mxGeometry x="-0.3341" y="-1" relative="1" as="geometry">
            <mxPoint x="1" y="13" as="offset" />
          </mxGeometry>
        </mxCell>
        <mxCell id="JzMBPSNkwDdgUZxuRiRF-67" value="Get product&amp;nbsp;&lt;div&gt;details&lt;/div&gt;" style="text;html=1;align=center;verticalAlign=middle;resizable=0;points=[];autosize=1;strokeColor=none;fillColor=none;" parent="1" vertex="1">
          <mxGeometry x="-202.5" y="-220" width="90" height="40" as="geometry" />
        </mxCell>
        <mxCell id="JzMBPSNkwDdgUZxuRiRF-68" style="edgeStyle=orthogonalEdgeStyle;rounded=0;orthogonalLoop=1;jettySize=auto;html=1;entryX=0.978;entryY=0.288;entryDx=0;entryDy=0;entryPerimeter=0;exitX=0.25;exitY=0;exitDx=0;exitDy=0;fillColor=#d5e8d4;strokeColor=#82b366;" parent="1" source="JzMBPSNkwDdgUZxuRiRF-48" target="JzMBPSNkwDdgUZxuRiRF-51" edge="1">
          <mxGeometry relative="1" as="geometry">
            <Array as="points">
              <mxPoint x="67.5" y="-270" />
              <mxPoint x="-137.5" y="-270" />
              <mxPoint x="-137.5" y="-237" />
            </Array>
          </mxGeometry>
        </mxCell>
        <mxCell id="UbQ19MGZ-QVVBDmHauCY-7" value="5" style="edgeLabel;html=1;align=center;verticalAlign=middle;resizable=0;points=[];" vertex="1" connectable="0" parent="JzMBPSNkwDdgUZxuRiRF-68">
          <mxGeometry x="-0.5608" y="-1" relative="1" as="geometry">
            <mxPoint x="-3" as="offset" />
          </mxGeometry>
        </mxCell>
        <mxCell id="JzMBPSNkwDdgUZxuRiRF-70" value="Get product&amp;nbsp;&lt;div&gt;details&lt;/div&gt;" style="text;html=1;align=center;verticalAlign=middle;resizable=0;points=[];autosize=1;strokeColor=none;fillColor=none;" parent="1" vertex="1">
          <mxGeometry x="-37.5" y="-270" width="90" height="40" as="geometry" />
        </mxCell>
        <mxCell id="JzMBPSNkwDdgUZxuRiRF-71" style="edgeStyle=orthogonalEdgeStyle;rounded=0;orthogonalLoop=1;jettySize=auto;html=1;entryX=0.5;entryY=1;entryDx=0;entryDy=0;entryPerimeter=0;dashed=1;fillColor=#f8cecc;strokeColor=#b85450;" parent="1" source="JzMBPSNkwDdgUZxuRiRF-54" target="JzMBPSNkwDdgUZxuRiRF-55" edge="1">
          <mxGeometry relative="1" as="geometry" />
        </mxCell>
        <mxCell id="JzMBPSNkwDdgUZxuRiRF-72" value="6" style="edgeLabel;html=1;align=center;verticalAlign=middle;resizable=0;points=[];" parent="JzMBPSNkwDdgUZxuRiRF-71" vertex="1" connectable="0">
          <mxGeometry x="0.2929" y="-1" relative="1" as="geometry">
            <mxPoint y="-4" as="offset" />
          </mxGeometry>
        </mxCell>
        <mxCell id="JzMBPSNkwDdgUZxuRiRF-73" value="Save product" style="edgeLabel;html=1;align=center;verticalAlign=middle;resizable=0;points=[];" parent="JzMBPSNkwDdgUZxuRiRF-71" vertex="1" connectable="0">
          <mxGeometry x="-0.191" y="1" relative="1" as="geometry">
            <mxPoint as="offset" />
          </mxGeometry>
        </mxCell>
        <mxCell id="JzMBPSNkwDdgUZxuRiRF-74" style="edgeStyle=orthogonalEdgeStyle;rounded=0;orthogonalLoop=1;jettySize=auto;html=1;entryX=0.501;entryY=1.037;entryDx=0;entryDy=0;entryPerimeter=0;fillColor=#d5e8d4;strokeColor=#82b366;" parent="1" source="JzMBPSNkwDdgUZxuRiRF-48" target="JzMBPSNkwDdgUZxuRiRF-56" edge="1">
          <mxGeometry relative="1" as="geometry" />
        </mxCell>
        <mxCell id="JzMBPSNkwDdgUZxuRiRF-75" value="6" style="edgeLabel;html=1;align=center;verticalAlign=middle;resizable=0;points=[];" parent="JzMBPSNkwDdgUZxuRiRF-74" vertex="1" connectable="0">
          <mxGeometry x="0.4193" y="2" relative="1" as="geometry">
            <mxPoint x="1" y="1" as="offset" />
          </mxGeometry>
        </mxCell>
        <mxCell id="JzMBPSNkwDdgUZxuRiRF-76" value="Save product" style="edgeLabel;html=1;align=center;verticalAlign=middle;resizable=0;points=[];" parent="JzMBPSNkwDdgUZxuRiRF-74" vertex="1" connectable="0">
          <mxGeometry x="-0.0851" relative="1" as="geometry">
            <mxPoint y="1" as="offset" />
          </mxGeometry>
        </mxCell>
        <mxCell id="JzMBPSNkwDdgUZxuRiRF-77" value="Create/update&lt;div&gt;product request&lt;/div&gt;" style="text;html=1;align=center;verticalAlign=middle;resizable=0;points=[];autosize=1;strokeColor=none;fillColor=none;" parent="1" vertex="1">
          <mxGeometry x="-400" y="-410" width="110" height="40" as="geometry" />
        </mxCell>
        <mxCell id="JzMBPSNkwDdgUZxuRiRF-78" style="edgeStyle=orthogonalEdgeStyle;rounded=0;orthogonalLoop=1;jettySize=auto;html=1;entryX=0.5;entryY=1;entryDx=0;entryDy=0;entryPerimeter=0;fillColor=#f8cecc;strokeColor=#b85450;" parent="1" source="JzMBPSNkwDdgUZxuRiRF-51" target="JzMBPSNkwDdgUZxuRiRF-57" edge="1">
          <mxGeometry relative="1" as="geometry" />
        </mxCell>
        <mxCell id="JzMBPSNkwDdgUZxuRiRF-79" value="1" style="edgeLabel;html=1;align=center;verticalAlign=middle;resizable=0;points=[];" parent="JzMBPSNkwDdgUZxuRiRF-78" vertex="1" connectable="0">
          <mxGeometry x="0.3156" y="1" relative="1" as="geometry">
            <mxPoint as="offset" />
          </mxGeometry>
        </mxCell>
        <mxCell id="JzMBPSNkwDdgUZxuRiRF-80" value="Save product" style="edgeLabel;html=1;align=center;verticalAlign=middle;resizable=0;points=[];" parent="JzMBPSNkwDdgUZxuRiRF-78" vertex="1" connectable="0">
          <mxGeometry x="-0.3363" y="-1" relative="1" as="geometry">
            <mxPoint y="-5" as="offset" />
          </mxGeometry>
        </mxCell>
        <mxCell id="JzMBPSNkwDdgUZxuRiRF-81" value="" style="group" parent="1" vertex="1" connectable="0">
          <mxGeometry x="-297.5" y="-70" width="440" height="40" as="geometry" />
        </mxCell>
        <mxCell id="JzMBPSNkwDdgUZxuRiRF-82" value="" style="shape=cylinder3;whiteSpace=wrap;html=1;boundedLbl=1;backgroundOutline=1;size=15;rotation=-90;fillColor=#dae8fc;strokeColor=#6c8ebf;" parent="JzMBPSNkwDdgUZxuRiRF-81" vertex="1">
          <mxGeometry x="200" y="-200" width="40" height="440" as="geometry" />
        </mxCell>
        <mxCell id="JzMBPSNkwDdgUZxuRiRF-83" value="&lt;span style=&quot;text-wrap: wrap;&quot;&gt;Kafka&lt;/span&gt;" style="text;html=1;align=center;verticalAlign=middle;resizable=0;points=[];autosize=1;strokeColor=none;fillColor=none;" parent="JzMBPSNkwDdgUZxuRiRF-81" vertex="1">
          <mxGeometry x="195" y="5" width="50" height="30" as="geometry" />
        </mxCell>
        <mxCell id="JzMBPSNkwDdgUZxuRiRF-84" value="Create/update product flow" style="text;html=1;align=center;verticalAlign=middle;resizable=0;points=[];autosize=1;strokeColor=none;fillColor=none;" parent="1" vertex="1">
          <mxGeometry x="150" y="-470" width="170" height="30" as="geometry" />
        </mxCell>
        <mxCell id="JzMBPSNkwDdgUZxuRiRF-85" value="" style="rounded=0;whiteSpace=wrap;html=1;" parent="1" vertex="1">
          <mxGeometry x="332" y="-470" width="565" height="460" as="geometry" />
        </mxCell>
        <mxCell id="JzMBPSNkwDdgUZxuRiRF-86" value="sep search service" style="whiteSpace=wrap;html=1;aspect=fixed;fillColor=#d5e8d4;strokeColor=#82b366;" parent="1" vertex="1">
          <mxGeometry x="787" y="-270" width="80" height="80" as="geometry" />
        </mxCell>
        <mxCell id="JzMBPSNkwDdgUZxuRiRF-87" style="edgeStyle=orthogonalEdgeStyle;rounded=0;orthogonalLoop=1;jettySize=auto;html=1;entryX=0;entryY=0.5;entryDx=0;entryDy=0;fillColor=#d5e8d4;strokeColor=#82b366;exitX=0.508;exitY=1.048;exitDx=0;exitDy=0;exitPerimeter=0;" parent="1" source="JzMBPSNkwDdgUZxuRiRF-115" target="JzMBPSNkwDdgUZxuRiRF-89" edge="1">
          <mxGeometry relative="1" as="geometry">
            <mxPoint x="342" y="-320" as="sourcePoint" />
            <Array as="points">
              <mxPoint x="388" y="-230" />
            </Array>
          </mxGeometry>
        </mxCell>
        <mxCell id="JzMBPSNkwDdgUZxuRiRF-88" value="0" style="edgeLabel;html=1;align=center;verticalAlign=middle;resizable=0;points=[];" parent="JzMBPSNkwDdgUZxuRiRF-87" vertex="1" connectable="0">
          <mxGeometry x="-0.0809" relative="1" as="geometry">
            <mxPoint as="offset" />
          </mxGeometry>
        </mxCell>
        <mxCell id="JzMBPSNkwDdgUZxuRiRF-89" value="sep&amp;nbsp;product service" style="whiteSpace=wrap;html=1;aspect=fixed;fillColor=#d5e8d4;strokeColor=#82b366;" parent="1" vertex="1">
          <mxGeometry x="457" y="-270" width="80" height="80" as="geometry" />
        </mxCell>
        <mxCell id="JzMBPSNkwDdgUZxuRiRF-92" value="sep payment service" style="whiteSpace=wrap;html=1;aspect=fixed;fillColor=#d5e8d4;strokeColor=#82b366;" parent="1" vertex="1">
          <mxGeometry x="622" y="-270" width="80" height="80" as="geometry" />
        </mxCell>
        <mxCell id="JzMBPSNkwDdgUZxuRiRF-93" value="Mongo" style="shape=cylinder3;whiteSpace=wrap;html=1;boundedLbl=1;backgroundOutline=1;size=15;fillColor=#fad9d5;strokeColor=#ae4132;" parent="1" vertex="1">
          <mxGeometry x="632" y="-440" width="60" height="80" as="geometry" />
        </mxCell>
        <mxCell id="JzMBPSNkwDdgUZxuRiRF-94" value="Elastic" style="shape=cylinder3;whiteSpace=wrap;html=1;boundedLbl=1;backgroundOutline=1;size=15;fillColor=#fad9d5;strokeColor=#ae4132;" parent="1" vertex="1">
          <mxGeometry x="797" y="-440" width="60" height="80" as="geometry" />
        </mxCell>
        <mxCell id="JzMBPSNkwDdgUZxuRiRF-95" value="MySql" style="shape=cylinder3;whiteSpace=wrap;html=1;boundedLbl=1;backgroundOutline=1;size=15;fillColor=#fad9d5;strokeColor=#ae4132;" parent="1" vertex="1">
          <mxGeometry x="467" y="-440" width="60" height="80" as="geometry" />
        </mxCell>
        <mxCell id="JzMBPSNkwDdgUZxuRiRF-96" style="edgeStyle=orthogonalEdgeStyle;rounded=0;orthogonalLoop=1;jettySize=auto;html=1;entryX=0.5;entryY=1;entryDx=0;entryDy=0;exitX=1;exitY=0.5;exitDx=0;exitDy=0;exitPerimeter=0;dashed=1;fillColor=#dae8fc;strokeColor=#6c8ebf;" parent="1" source="JzMBPSNkwDdgUZxuRiRF-120" target="JzMBPSNkwDdgUZxuRiRF-92" edge="1">
          <mxGeometry relative="1" as="geometry">
            <mxPoint x="662" y="-130" as="sourcePoint" />
          </mxGeometry>
        </mxCell>
        <mxCell id="JzMBPSNkwDdgUZxuRiRF-97" value="3" style="edgeLabel;html=1;align=center;verticalAlign=middle;resizable=0;points=[];" parent="JzMBPSNkwDdgUZxuRiRF-96" vertex="1" connectable="0">
          <mxGeometry x="-0.0031" y="1" relative="1" as="geometry">
            <mxPoint x="1" y="10" as="offset" />
          </mxGeometry>
        </mxCell>
        <mxCell id="JzMBPSNkwDdgUZxuRiRF-98" value="product.deleted" style="edgeLabel;html=1;align=center;verticalAlign=middle;resizable=0;points=[];" parent="JzMBPSNkwDdgUZxuRiRF-96" vertex="1" connectable="0">
          <mxGeometry x="-0.4092" relative="1" as="geometry">
            <mxPoint y="6" as="offset" />
          </mxGeometry>
        </mxCell>
        <mxCell id="JzMBPSNkwDdgUZxuRiRF-99" style="edgeStyle=orthogonalEdgeStyle;rounded=0;orthogonalLoop=1;jettySize=auto;html=1;entryX=0.5;entryY=1;entryDx=0;entryDy=0;dashed=1;fillColor=#dae8fc;strokeColor=#6c8ebf;exitX=0.984;exitY=0.876;exitDx=0;exitDy=0;exitPerimeter=0;" parent="1" source="JzMBPSNkwDdgUZxuRiRF-120" target="JzMBPSNkwDdgUZxuRiRF-86" edge="1">
          <mxGeometry relative="1" as="geometry">
            <Array as="points" />
            <mxPoint x="827" y="-130" as="sourcePoint" />
          </mxGeometry>
        </mxCell>
        <mxCell id="JzMBPSNkwDdgUZxuRiRF-100" value="product.deleted" style="edgeLabel;html=1;align=center;verticalAlign=middle;resizable=0;points=[];" parent="JzMBPSNkwDdgUZxuRiRF-99" vertex="1" connectable="0">
          <mxGeometry x="-0.4057" relative="1" as="geometry">
            <mxPoint y="5" as="offset" />
          </mxGeometry>
        </mxCell>
        <mxCell id="JzMBPSNkwDdgUZxuRiRF-101" value="3" style="edgeLabel;html=1;align=center;verticalAlign=middle;resizable=0;points=[];" parent="JzMBPSNkwDdgUZxuRiRF-99" vertex="1" connectable="0">
          <mxGeometry x="0.2645" y="1" relative="1" as="geometry">
            <mxPoint x="1" y="25" as="offset" />
          </mxGeometry>
        </mxCell>
        <mxCell id="JzMBPSNkwDdgUZxuRiRF-102" style="edgeStyle=orthogonalEdgeStyle;rounded=0;orthogonalLoop=1;jettySize=auto;html=1;dashed=1;fillColor=#dae8fc;strokeColor=#6c8ebf;entryX=0.998;entryY=0.124;entryDx=0;entryDy=0;entryPerimeter=0;" parent="1" source="JzMBPSNkwDdgUZxuRiRF-89" edge="1" target="JzMBPSNkwDdgUZxuRiRF-120">
          <mxGeometry relative="1" as="geometry">
            <mxPoint x="497" y="-100" as="targetPoint" />
          </mxGeometry>
        </mxCell>
        <mxCell id="JzMBPSNkwDdgUZxuRiRF-103" value="product.deleted" style="edgeLabel;html=1;align=center;verticalAlign=middle;resizable=0;points=[];" parent="JzMBPSNkwDdgUZxuRiRF-102" vertex="1" connectable="0">
          <mxGeometry x="-0.052" relative="1" as="geometry">
            <mxPoint y="33" as="offset" />
          </mxGeometry>
        </mxCell>
        <mxCell id="JzMBPSNkwDdgUZxuRiRF-104" value="2" style="edgeLabel;html=1;align=center;verticalAlign=middle;resizable=0;points=[];" parent="JzMBPSNkwDdgUZxuRiRF-102" vertex="1" connectable="0">
          <mxGeometry x="-0.3341" y="-1" relative="1" as="geometry">
            <mxPoint x="1" y="30" as="offset" />
          </mxGeometry>
        </mxCell>
        <mxCell id="JzMBPSNkwDdgUZxuRiRF-109" style="edgeStyle=orthogonalEdgeStyle;rounded=0;orthogonalLoop=1;jettySize=auto;html=1;entryX=0.5;entryY=1;entryDx=0;entryDy=0;entryPerimeter=0;dashed=1;fillColor=#f8cecc;strokeColor=#b85450;" parent="1" source="JzMBPSNkwDdgUZxuRiRF-92" target="JzMBPSNkwDdgUZxuRiRF-93" edge="1">
          <mxGeometry relative="1" as="geometry" />
        </mxCell>
        <mxCell id="JzMBPSNkwDdgUZxuRiRF-110" value="4" style="edgeLabel;html=1;align=center;verticalAlign=middle;resizable=0;points=[];" parent="JzMBPSNkwDdgUZxuRiRF-109" vertex="1" connectable="0">
          <mxGeometry x="0.2929" y="-1" relative="1" as="geometry">
            <mxPoint y="-4" as="offset" />
          </mxGeometry>
        </mxCell>
        <mxCell id="JzMBPSNkwDdgUZxuRiRF-111" value="&lt;span style=&quot;font-size: 12px; background-color: rgb(251, 251, 251);&quot;&gt;Delete&amp;nbsp;&lt;/span&gt;&lt;span style=&quot;font-size: 12px; background-color: initial;&quot;&gt;product&lt;/span&gt;" style="edgeLabel;html=1;align=center;verticalAlign=middle;resizable=0;points=[];" parent="JzMBPSNkwDdgUZxuRiRF-109" vertex="1" connectable="0">
          <mxGeometry x="-0.191" y="1" relative="1" as="geometry">
            <mxPoint as="offset" />
          </mxGeometry>
        </mxCell>
        <mxCell id="JzMBPSNkwDdgUZxuRiRF-112" style="edgeStyle=orthogonalEdgeStyle;rounded=0;orthogonalLoop=1;jettySize=auto;html=1;entryX=0.501;entryY=1.037;entryDx=0;entryDy=0;entryPerimeter=0;fillColor=#d5e8d4;strokeColor=#82b366;" parent="1" source="JzMBPSNkwDdgUZxuRiRF-86" target="JzMBPSNkwDdgUZxuRiRF-94" edge="1">
          <mxGeometry relative="1" as="geometry" />
        </mxCell>
        <mxCell id="JzMBPSNkwDdgUZxuRiRF-113" value="4" style="edgeLabel;html=1;align=center;verticalAlign=middle;resizable=0;points=[];" parent="JzMBPSNkwDdgUZxuRiRF-112" vertex="1" connectable="0">
          <mxGeometry x="0.4193" y="2" relative="1" as="geometry">
            <mxPoint x="1" y="1" as="offset" />
          </mxGeometry>
        </mxCell>
        <mxCell id="JzMBPSNkwDdgUZxuRiRF-114" value="&lt;span style=&quot;font-size: 12px; background-color: rgb(251, 251, 251);&quot;&gt;Delete&amp;nbsp;&lt;/span&gt;&lt;span style=&quot;font-size: 12px; background-color: initial;&quot;&gt;product&lt;/span&gt;" style="edgeLabel;html=1;align=center;verticalAlign=middle;resizable=0;points=[];" parent="JzMBPSNkwDdgUZxuRiRF-112" vertex="1" connectable="0">
          <mxGeometry x="-0.0851" relative="1" as="geometry">
            <mxPoint y="1" as="offset" />
          </mxGeometry>
        </mxCell>
        <mxCell id="JzMBPSNkwDdgUZxuRiRF-115" value="Delete&amp;nbsp;&lt;div&gt;&lt;span style=&quot;background-color: initial;&quot;&gt;product request&lt;/span&gt;&lt;/div&gt;" style="text;html=1;align=center;verticalAlign=middle;resizable=0;points=[];autosize=1;strokeColor=none;fillColor=none;" parent="1" vertex="1">
          <mxGeometry x="332" y="-420" width="110" height="40" as="geometry" />
        </mxCell>
        <mxCell id="JzMBPSNkwDdgUZxuRiRF-116" style="edgeStyle=orthogonalEdgeStyle;rounded=0;orthogonalLoop=1;jettySize=auto;html=1;entryX=0.5;entryY=1;entryDx=0;entryDy=0;entryPerimeter=0;fillColor=#f8cecc;strokeColor=#b85450;" parent="1" source="JzMBPSNkwDdgUZxuRiRF-89" target="JzMBPSNkwDdgUZxuRiRF-95" edge="1">
          <mxGeometry relative="1" as="geometry" />
        </mxCell>
        <mxCell id="JzMBPSNkwDdgUZxuRiRF-117" value="1" style="edgeLabel;html=1;align=center;verticalAlign=middle;resizable=0;points=[];" parent="JzMBPSNkwDdgUZxuRiRF-116" vertex="1" connectable="0">
          <mxGeometry x="0.3156" y="1" relative="1" as="geometry">
            <mxPoint as="offset" />
          </mxGeometry>
        </mxCell>
        <mxCell id="JzMBPSNkwDdgUZxuRiRF-118" value="&lt;span style=&quot;font-size: 12px; background-color: rgb(251, 251, 251);&quot;&gt;Delete&amp;nbsp;&lt;/span&gt;&lt;span style=&quot;font-size: 12px; background-color: initial;&quot;&gt;product&lt;/span&gt;" style="edgeLabel;html=1;align=center;verticalAlign=middle;resizable=0;points=[];" parent="JzMBPSNkwDdgUZxuRiRF-116" vertex="1" connectable="0">
          <mxGeometry x="-0.3363" y="-1" relative="1" as="geometry">
            <mxPoint y="-5" as="offset" />
          </mxGeometry>
        </mxCell>
        <mxCell id="JzMBPSNkwDdgUZxuRiRF-119" value="" style="group" parent="1" vertex="1" connectable="0">
          <mxGeometry x="442" y="-70" width="440" height="40" as="geometry" />
        </mxCell>
        <mxCell id="JzMBPSNkwDdgUZxuRiRF-120" value="" style="shape=cylinder3;whiteSpace=wrap;html=1;boundedLbl=1;backgroundOutline=1;size=15;rotation=-90;fillColor=#dae8fc;strokeColor=#6c8ebf;" parent="JzMBPSNkwDdgUZxuRiRF-119" vertex="1">
          <mxGeometry x="200" y="-200" width="40" height="440" as="geometry" />
        </mxCell>
        <mxCell id="JzMBPSNkwDdgUZxuRiRF-121" value="&lt;span style=&quot;text-wrap: wrap;&quot;&gt;Kafka&lt;/span&gt;" style="text;html=1;align=center;verticalAlign=middle;resizable=0;points=[];autosize=1;strokeColor=none;fillColor=none;" parent="JzMBPSNkwDdgUZxuRiRF-119" vertex="1">
          <mxGeometry x="195" y="5" width="50" height="30" as="geometry" />
        </mxCell>
        <mxCell id="JzMBPSNkwDdgUZxuRiRF-122" value="Delete product flow" style="text;html=1;align=center;verticalAlign=middle;resizable=0;points=[];autosize=1;strokeColor=none;fillColor=none;" parent="1" vertex="1">
          <mxGeometry x="767" y="-470" width="130" height="30" as="geometry" />
        </mxCell>
        <mxCell id="JzMBPSNkwDdgUZxuRiRF-140" value="" style="rounded=0;whiteSpace=wrap;html=1;" parent="1" vertex="1">
          <mxGeometry x="330" y="5" width="190" height="70" as="geometry" />
        </mxCell>
        <mxCell id="JzMBPSNkwDdgUZxuRiRF-142" value="" style="endArrow=classic;html=1;rounded=0;dashed=1;" parent="1" edge="1">
          <mxGeometry width="50" height="50" relative="1" as="geometry">
            <mxPoint x="430" y="45" as="sourcePoint" />
            <mxPoint x="510" y="45" as="targetPoint" />
          </mxGeometry>
        </mxCell>
        <mxCell id="JzMBPSNkwDdgUZxuRiRF-143" value="&lt;span style=&quot;font-size: 12px; background-color: rgb(251, 251, 251);&quot;&gt;Async&lt;/span&gt;" style="edgeLabel;html=1;align=center;verticalAlign=middle;resizable=0;points=[];" parent="JzMBPSNkwDdgUZxuRiRF-142" vertex="1" connectable="0">
          <mxGeometry x="-0.1878" y="1" relative="1" as="geometry">
            <mxPoint x="6" as="offset" />
          </mxGeometry>
        </mxCell>
        <mxCell id="JzMBPSNkwDdgUZxuRiRF-144" value="" style="endArrow=classic;html=1;rounded=0;" parent="1" edge="1">
          <mxGeometry width="50" height="50" relative="1" as="geometry">
            <mxPoint x="430" y="64.86000000000001" as="sourcePoint" />
            <mxPoint x="510" y="64.86000000000001" as="targetPoint" />
          </mxGeometry>
        </mxCell>
        <mxCell id="JzMBPSNkwDdgUZxuRiRF-145" value="&lt;span style=&quot;font-size: 12px; background-color: rgb(251, 251, 251);&quot;&gt;Sync&lt;/span&gt;" style="edgeLabel;html=1;align=center;verticalAlign=middle;resizable=0;points=[];" parent="JzMBPSNkwDdgUZxuRiRF-144" vertex="1" connectable="0">
          <mxGeometry x="-0.2651" y="1" relative="1" as="geometry">
            <mxPoint x="9" as="offset" />
          </mxGeometry>
        </mxCell>
        <mxCell id="JzMBPSNkwDdgUZxuRiRF-146" value="" style="endArrow=classic;html=1;rounded=0;fillColor=#d5e8d4;strokeColor=#82b366;" parent="1" edge="1">
          <mxGeometry width="50" height="50" relative="1" as="geometry">
            <mxPoint x="340" y="25" as="sourcePoint" />
            <mxPoint x="420" y="25.24000000000001" as="targetPoint" />
          </mxGeometry>
        </mxCell>
        <mxCell id="JzMBPSNkwDdgUZxuRiRF-147" value="&lt;span style=&quot;font-size: 12px; background-color: rgb(251, 251, 251);&quot;&gt;Rest&lt;/span&gt;" style="edgeLabel;html=1;align=center;verticalAlign=middle;resizable=0;points=[];" parent="JzMBPSNkwDdgUZxuRiRF-146" vertex="1" connectable="0">
          <mxGeometry x="-0.0147" relative="1" as="geometry">
            <mxPoint x="-3" y="-1" as="offset" />
          </mxGeometry>
        </mxCell>
        <mxCell id="JzMBPSNkwDdgUZxuRiRF-148" value="" style="endArrow=classic;html=1;rounded=0;fillColor=#dae8fc;strokeColor=#6c8ebf;" parent="1" edge="1">
          <mxGeometry width="50" height="50" relative="1" as="geometry">
            <mxPoint x="340" y="45" as="sourcePoint" />
            <mxPoint x="420" y="45" as="targetPoint" />
          </mxGeometry>
        </mxCell>
        <mxCell id="JzMBPSNkwDdgUZxuRiRF-149" value="&lt;span style=&quot;font-size: 12px; text-wrap: wrap; background-color: rgb(251, 251, 251);&quot;&gt;Event&lt;/span&gt;" style="edgeLabel;html=1;align=center;verticalAlign=middle;resizable=0;points=[];" parent="JzMBPSNkwDdgUZxuRiRF-148" vertex="1" connectable="0">
          <mxGeometry x="0.0214" y="-1" relative="1" as="geometry">
            <mxPoint x="-3" y="-2" as="offset" />
          </mxGeometry>
        </mxCell>
        <mxCell id="JzMBPSNkwDdgUZxuRiRF-152" value="" style="endArrow=classic;html=1;rounded=0;fillColor=#fad9d5;strokeColor=#ae4132;" parent="1" edge="1">
          <mxGeometry width="50" height="50" relative="1" as="geometry">
            <mxPoint x="340" y="64.56" as="sourcePoint" />
            <mxPoint x="420" y="64.56" as="targetPoint" />
          </mxGeometry>
        </mxCell>
        <mxCell id="JzMBPSNkwDdgUZxuRiRF-153" value="&lt;span style=&quot;font-size: 12px; text-wrap: wrap; background-color: rgb(251, 251, 251);&quot;&gt;DB&lt;/span&gt;" style="edgeLabel;html=1;align=center;verticalAlign=middle;resizable=0;points=[];" parent="JzMBPSNkwDdgUZxuRiRF-152" vertex="1" connectable="0">
          <mxGeometry x="-0.2075" y="-1" relative="1" as="geometry">
            <mxPoint x="4" y="-2" as="offset" />
          </mxGeometry>
        </mxCell>
        <mxCell id="JzMBPSNkwDdgUZxuRiRF-157" value="Legend" style="text;html=1;align=center;verticalAlign=middle;resizable=0;points=[];autosize=1;strokeColor=none;fillColor=none;" parent="1" vertex="1">
          <mxGeometry x="460" y="5" width="60" height="30" as="geometry" />
        </mxCell>
        <mxCell id="JzMBPSNkwDdgUZxuRiRF-158" value="" style="rounded=0;whiteSpace=wrap;html=1;" parent="1" vertex="1">
          <mxGeometry x="-397.5" y="5" width="717.5" height="510" as="geometry" />
        </mxCell>
        <mxCell id="UbQ19MGZ-QVVBDmHauCY-11" style="edgeStyle=orthogonalEdgeStyle;rounded=0;orthogonalLoop=1;jettySize=auto;html=1;entryX=0;entryY=0.5;entryDx=0;entryDy=0;fillColor=#d5e8d4;strokeColor=#82b366;" edge="1" parent="1" source="JzMBPSNkwDdgUZxuRiRF-159" target="UbQ19MGZ-QVVBDmHauCY-10">
          <mxGeometry relative="1" as="geometry" />
        </mxCell>
        <mxCell id="UbQ19MGZ-QVVBDmHauCY-14" value="4" style="edgeLabel;html=1;align=center;verticalAlign=middle;resizable=0;points=[];" vertex="1" connectable="0" parent="UbQ19MGZ-QVVBDmHauCY-11">
          <mxGeometry x="0.0039" y="1" relative="1" as="geometry">
            <mxPoint x="-3" y="1" as="offset" />
          </mxGeometry>
        </mxCell>
        <mxCell id="JzMBPSNkwDdgUZxuRiRF-159" value="sep search service" style="whiteSpace=wrap;html=1;aspect=fixed;fillColor=#d5e8d4;strokeColor=#82b366;" parent="1" vertex="1">
          <mxGeometry x="55" y="215" width="80" height="80" as="geometry" />
        </mxCell>
        <mxCell id="JzMBPSNkwDdgUZxuRiRF-160" style="edgeStyle=orthogonalEdgeStyle;rounded=0;orthogonalLoop=1;jettySize=auto;html=1;entryX=0;entryY=0.5;entryDx=0;entryDy=0;fillColor=#d5e8d4;strokeColor=#82b366;exitX=0.509;exitY=1.001;exitDx=0;exitDy=0;exitPerimeter=0;" parent="1" source="JzMBPSNkwDdgUZxuRiRF-188" target="JzMBPSNkwDdgUZxuRiRF-162" edge="1">
          <mxGeometry relative="1" as="geometry">
            <mxPoint x="-390" y="165" as="sourcePoint" />
            <Array as="points" />
          </mxGeometry>
        </mxCell>
        <mxCell id="JzMBPSNkwDdgUZxuRiRF-161" value="0" style="edgeLabel;html=1;align=center;verticalAlign=middle;resizable=0;points=[];" parent="JzMBPSNkwDdgUZxuRiRF-160" vertex="1" connectable="0">
          <mxGeometry x="-0.0809" relative="1" as="geometry">
            <mxPoint as="offset" />
          </mxGeometry>
        </mxCell>
        <mxCell id="JzMBPSNkwDdgUZxuRiRF-162" value="sep payment&lt;div&gt;&amp;nbsp;service&lt;/div&gt;" style="whiteSpace=wrap;html=1;aspect=fixed;fillColor=#d5e8d4;strokeColor=#82b366;" parent="1" vertex="1">
          <mxGeometry x="-275" y="215" width="80" height="80" as="geometry" />
        </mxCell>
        <mxCell id="JzMBPSNkwDdgUZxuRiRF-163" style="edgeStyle=orthogonalEdgeStyle;rounded=0;orthogonalLoop=1;jettySize=auto;html=1;entryX=1;entryY=0.5;entryDx=0;entryDy=0;fillColor=#d5e8d4;strokeColor=#82b366;" parent="1" source="JzMBPSNkwDdgUZxuRiRF-165" target="JzMBPSNkwDdgUZxuRiRF-162" edge="1">
          <mxGeometry relative="1" as="geometry" />
        </mxCell>
        <mxCell id="JzMBPSNkwDdgUZxuRiRF-164" value="5" style="edgeLabel;html=1;align=center;verticalAlign=middle;resizable=0;points=[];" parent="JzMBPSNkwDdgUZxuRiRF-163" vertex="1" connectable="0">
          <mxGeometry x="-0.1111" relative="1" as="geometry">
            <mxPoint x="-7" as="offset" />
          </mxGeometry>
        </mxCell>
        <mxCell id="UbQ19MGZ-QVVBDmHauCY-12" style="edgeStyle=orthogonalEdgeStyle;rounded=0;orthogonalLoop=1;jettySize=auto;html=1;entryX=0;entryY=0.75;entryDx=0;entryDy=0;fillColor=#d5e8d4;strokeColor=#82b366;" edge="1" parent="1" source="JzMBPSNkwDdgUZxuRiRF-165" target="UbQ19MGZ-QVVBDmHauCY-10">
          <mxGeometry relative="1" as="geometry">
            <Array as="points">
              <mxPoint x="-10" y="280" />
              <mxPoint x="-10" y="330" />
              <mxPoint x="190" y="330" />
              <mxPoint x="190" y="275" />
            </Array>
          </mxGeometry>
        </mxCell>
        <mxCell id="UbQ19MGZ-QVVBDmHauCY-13" value="4" style="edgeLabel;html=1;align=center;verticalAlign=middle;resizable=0;points=[];" vertex="1" connectable="0" parent="UbQ19MGZ-QVVBDmHauCY-12">
          <mxGeometry x="-0.4047" y="2" relative="1" as="geometry">
            <mxPoint as="offset" />
          </mxGeometry>
        </mxCell>
        <mxCell id="JzMBPSNkwDdgUZxuRiRF-165" value="sep product service" style="whiteSpace=wrap;html=1;aspect=fixed;fillColor=#d5e8d4;strokeColor=#82b366;" parent="1" vertex="1">
          <mxGeometry x="-110" y="215" width="80" height="80" as="geometry" />
        </mxCell>
        <mxCell id="JzMBPSNkwDdgUZxuRiRF-166" value="MySql" style="shape=cylinder3;whiteSpace=wrap;html=1;boundedLbl=1;backgroundOutline=1;size=15;fillColor=#fad9d5;strokeColor=#ae4132;" parent="1" vertex="1">
          <mxGeometry x="-100" y="45" width="60" height="80" as="geometry" />
        </mxCell>
        <mxCell id="JzMBPSNkwDdgUZxuRiRF-167" value="Elastic" style="shape=cylinder3;whiteSpace=wrap;html=1;boundedLbl=1;backgroundOutline=1;size=15;fillColor=#fad9d5;strokeColor=#ae4132;" parent="1" vertex="1">
          <mxGeometry x="65" y="45" width="60" height="80" as="geometry" />
        </mxCell>
        <mxCell id="JzMBPSNkwDdgUZxuRiRF-168" value="Mongo" style="shape=cylinder3;whiteSpace=wrap;html=1;boundedLbl=1;backgroundOutline=1;size=15;fillColor=#fad9d5;strokeColor=#ae4132;" parent="1" vertex="1">
          <mxGeometry x="-265" y="45" width="60" height="80" as="geometry" />
        </mxCell>
        <mxCell id="JzMBPSNkwDdgUZxuRiRF-169" style="edgeStyle=orthogonalEdgeStyle;rounded=0;orthogonalLoop=1;jettySize=auto;html=1;entryX=0.5;entryY=1;entryDx=0;entryDy=0;exitX=1;exitY=0.5;exitDx=0;exitDy=0;exitPerimeter=0;dashed=1;fillColor=#dae8fc;strokeColor=#6c8ebf;" parent="1" source="JzMBPSNkwDdgUZxuRiRF-193" target="JzMBPSNkwDdgUZxuRiRF-165" edge="1">
          <mxGeometry relative="1" as="geometry" />
        </mxCell>
        <mxCell id="JzMBPSNkwDdgUZxuRiRF-170" value="3" style="edgeLabel;html=1;align=center;verticalAlign=middle;resizable=0;points=[];" parent="JzMBPSNkwDdgUZxuRiRF-169" vertex="1" connectable="0">
          <mxGeometry x="-0.0031" y="1" relative="1" as="geometry">
            <mxPoint x="1" y="5" as="offset" />
          </mxGeometry>
        </mxCell>
        <mxCell id="JzMBPSNkwDdgUZxuRiRF-171" value="&lt;span style=&quot;font-size: 12px; background-color: rgb(251, 251, 251);&quot;&gt;payment&lt;/span&gt;.created" style="edgeLabel;html=1;align=center;verticalAlign=middle;resizable=0;points=[];" parent="JzMBPSNkwDdgUZxuRiRF-169" vertex="1" connectable="0">
          <mxGeometry x="-0.4092" relative="1" as="geometry">
            <mxPoint y="5" as="offset" />
          </mxGeometry>
        </mxCell>
        <mxCell id="JzMBPSNkwDdgUZxuRiRF-172" style="edgeStyle=orthogonalEdgeStyle;rounded=0;orthogonalLoop=1;jettySize=auto;html=1;entryX=0.5;entryY=1;entryDx=0;entryDy=0;exitX=0.993;exitY=0.876;exitDx=0;exitDy=0;exitPerimeter=0;dashed=1;fillColor=#dae8fc;strokeColor=#6c8ebf;" parent="1" source="JzMBPSNkwDdgUZxuRiRF-193" target="JzMBPSNkwDdgUZxuRiRF-159" edge="1">
          <mxGeometry relative="1" as="geometry">
            <Array as="points" />
          </mxGeometry>
        </mxCell>
        <mxCell id="JzMBPSNkwDdgUZxuRiRF-173" value="&lt;span style=&quot;font-size: 12px; background-color: rgb(251, 251, 251);&quot;&gt;payment&lt;/span&gt;.created" style="edgeLabel;html=1;align=center;verticalAlign=middle;resizable=0;points=[];" parent="JzMBPSNkwDdgUZxuRiRF-172" vertex="1" connectable="0">
          <mxGeometry x="-0.4057" relative="1" as="geometry">
            <mxPoint y="4" as="offset" />
          </mxGeometry>
        </mxCell>
        <mxCell id="JzMBPSNkwDdgUZxuRiRF-174" value="3" style="edgeLabel;html=1;align=center;verticalAlign=middle;resizable=0;points=[];" parent="JzMBPSNkwDdgUZxuRiRF-172" vertex="1" connectable="0">
          <mxGeometry x="0.2645" y="1" relative="1" as="geometry">
            <mxPoint x="1" y="25" as="offset" />
          </mxGeometry>
        </mxCell>
        <mxCell id="JzMBPSNkwDdgUZxuRiRF-175" style="edgeStyle=orthogonalEdgeStyle;rounded=0;orthogonalLoop=1;jettySize=auto;html=1;entryX=1;entryY=0.125;entryDx=0;entryDy=0;entryPerimeter=0;dashed=1;fillColor=#dae8fc;strokeColor=#6c8ebf;" parent="1" source="JzMBPSNkwDdgUZxuRiRF-162" target="JzMBPSNkwDdgUZxuRiRF-193" edge="1">
          <mxGeometry relative="1" as="geometry" />
        </mxCell>
        <mxCell id="JzMBPSNkwDdgUZxuRiRF-176" value="&lt;span style=&quot;font-size: 12px; background-color: rgb(251, 251, 251);&quot;&gt;payment&lt;/span&gt;.created" style="edgeLabel;html=1;align=center;verticalAlign=middle;resizable=0;points=[];" parent="JzMBPSNkwDdgUZxuRiRF-175" vertex="1" connectable="0">
          <mxGeometry x="-0.052" relative="1" as="geometry">
            <mxPoint y="39" as="offset" />
          </mxGeometry>
        </mxCell>
        <mxCell id="JzMBPSNkwDdgUZxuRiRF-177" value="2" style="edgeLabel;html=1;align=center;verticalAlign=middle;resizable=0;points=[];" parent="JzMBPSNkwDdgUZxuRiRF-175" vertex="1" connectable="0">
          <mxGeometry x="-0.3341" y="-1" relative="1" as="geometry">
            <mxPoint x="1" y="30" as="offset" />
          </mxGeometry>
        </mxCell>
        <mxCell id="JzMBPSNkwDdgUZxuRiRF-178" value="Get payment&lt;div&gt;details&lt;/div&gt;" style="text;html=1;align=center;verticalAlign=middle;resizable=0;points=[];autosize=1;strokeColor=none;fillColor=none;" parent="1" vertex="1">
          <mxGeometry x="-200" y="255" width="90" height="40" as="geometry" />
        </mxCell>
        <mxCell id="JzMBPSNkwDdgUZxuRiRF-179" style="edgeStyle=orthogonalEdgeStyle;rounded=0;orthogonalLoop=1;jettySize=auto;html=1;entryX=0.978;entryY=0.288;entryDx=0;entryDy=0;entryPerimeter=0;exitX=0.25;exitY=0;exitDx=0;exitDy=0;fillColor=#d5e8d4;strokeColor=#82b366;" parent="1" source="JzMBPSNkwDdgUZxuRiRF-159" target="JzMBPSNkwDdgUZxuRiRF-162" edge="1">
          <mxGeometry relative="1" as="geometry">
            <Array as="points">
              <mxPoint x="75" y="205" />
              <mxPoint x="-130" y="205" />
              <mxPoint x="-130" y="238" />
            </Array>
          </mxGeometry>
        </mxCell>
        <mxCell id="JzMBPSNkwDdgUZxuRiRF-180" value="5" style="edgeLabel;html=1;align=center;verticalAlign=middle;resizable=0;points=[];" parent="JzMBPSNkwDdgUZxuRiRF-179" vertex="1" connectable="0">
          <mxGeometry x="-0.5433" relative="1" as="geometry">
            <mxPoint as="offset" />
          </mxGeometry>
        </mxCell>
        <mxCell id="JzMBPSNkwDdgUZxuRiRF-181" value="Get payment&amp;nbsp;&lt;div&gt;details&lt;/div&gt;" style="text;html=1;align=center;verticalAlign=middle;resizable=0;points=[];autosize=1;strokeColor=none;fillColor=none;" parent="1" vertex="1">
          <mxGeometry x="-35" y="205" width="100" height="40" as="geometry" />
        </mxCell>
        <mxCell id="JzMBPSNkwDdgUZxuRiRF-182" style="edgeStyle=orthogonalEdgeStyle;rounded=0;orthogonalLoop=1;jettySize=auto;html=1;entryX=0.5;entryY=1;entryDx=0;entryDy=0;entryPerimeter=0;fillColor=#f8cecc;strokeColor=#b85450;" parent="1" source="JzMBPSNkwDdgUZxuRiRF-165" target="JzMBPSNkwDdgUZxuRiRF-166" edge="1">
          <mxGeometry relative="1" as="geometry" />
        </mxCell>
        <mxCell id="JzMBPSNkwDdgUZxuRiRF-183" value="6" style="edgeLabel;html=1;align=center;verticalAlign=middle;resizable=0;points=[];" parent="JzMBPSNkwDdgUZxuRiRF-182" vertex="1" connectable="0">
          <mxGeometry x="0.2929" y="-1" relative="1" as="geometry">
            <mxPoint y="-4" as="offset" />
          </mxGeometry>
        </mxCell>
        <mxCell id="JzMBPSNkwDdgUZxuRiRF-184" value="Update product count" style="edgeLabel;html=1;align=center;verticalAlign=middle;resizable=0;points=[];" parent="JzMBPSNkwDdgUZxuRiRF-182" vertex="1" connectable="0">
          <mxGeometry x="-0.191" y="1" relative="1" as="geometry">
            <mxPoint as="offset" />
          </mxGeometry>
        </mxCell>
        <mxCell id="JzMBPSNkwDdgUZxuRiRF-185" style="edgeStyle=orthogonalEdgeStyle;rounded=0;orthogonalLoop=1;jettySize=auto;html=1;entryX=0.501;entryY=1.037;entryDx=0;entryDy=0;entryPerimeter=0;fillColor=#d5e8d4;strokeColor=#82b366;" parent="1" source="JzMBPSNkwDdgUZxuRiRF-159" target="JzMBPSNkwDdgUZxuRiRF-167" edge="1">
          <mxGeometry relative="1" as="geometry" />
        </mxCell>
        <mxCell id="JzMBPSNkwDdgUZxuRiRF-186" value="6" style="edgeLabel;html=1;align=center;verticalAlign=middle;resizable=0;points=[];" parent="JzMBPSNkwDdgUZxuRiRF-185" vertex="1" connectable="0">
          <mxGeometry x="0.4193" y="2" relative="1" as="geometry">
            <mxPoint x="1" y="1" as="offset" />
          </mxGeometry>
        </mxCell>
        <mxCell id="JzMBPSNkwDdgUZxuRiRF-187" value="Save&amp;nbsp;&lt;span style=&quot;font-size: 12px; background-color: rgb(251, 251, 251);&quot;&gt;payment&lt;/span&gt;" style="edgeLabel;html=1;align=center;verticalAlign=middle;resizable=0;points=[];" parent="JzMBPSNkwDdgUZxuRiRF-185" vertex="1" connectable="0">
          <mxGeometry x="-0.0851" relative="1" as="geometry">
            <mxPoint y="1" as="offset" />
          </mxGeometry>
        </mxCell>
        <mxCell id="JzMBPSNkwDdgUZxuRiRF-188" value="Create&lt;div&gt;payment request&lt;/div&gt;" style="text;html=1;align=center;verticalAlign=middle;resizable=0;points=[];autosize=1;strokeColor=none;fillColor=none;" parent="1" vertex="1">
          <mxGeometry x="-400" y="65" width="110" height="40" as="geometry" />
        </mxCell>
        <mxCell id="JzMBPSNkwDdgUZxuRiRF-189" style="edgeStyle=orthogonalEdgeStyle;rounded=0;orthogonalLoop=1;jettySize=auto;html=1;entryX=0.5;entryY=1;entryDx=0;entryDy=0;entryPerimeter=0;fillColor=#f8cecc;strokeColor=#b85450;dashed=1;" parent="1" source="JzMBPSNkwDdgUZxuRiRF-162" target="JzMBPSNkwDdgUZxuRiRF-168" edge="1">
          <mxGeometry relative="1" as="geometry" />
        </mxCell>
        <mxCell id="JzMBPSNkwDdgUZxuRiRF-190" value="1" style="edgeLabel;html=1;align=center;verticalAlign=middle;resizable=0;points=[];" parent="JzMBPSNkwDdgUZxuRiRF-189" vertex="1" connectable="0">
          <mxGeometry x="0.3156" y="1" relative="1" as="geometry">
            <mxPoint as="offset" />
          </mxGeometry>
        </mxCell>
        <mxCell id="JzMBPSNkwDdgUZxuRiRF-191" value="Save&amp;nbsp;&lt;span style=&quot;font-size: 12px; background-color: rgb(251, 251, 251);&quot;&gt;payment&lt;/span&gt;" style="edgeLabel;html=1;align=center;verticalAlign=middle;resizable=0;points=[];" parent="JzMBPSNkwDdgUZxuRiRF-189" vertex="1" connectable="0">
          <mxGeometry x="-0.3363" y="-1" relative="1" as="geometry">
            <mxPoint y="-5" as="offset" />
          </mxGeometry>
        </mxCell>
        <mxCell id="JzMBPSNkwDdgUZxuRiRF-192" value="" style="group" parent="1" vertex="1" connectable="0">
          <mxGeometry x="-290" y="445" width="440" height="40" as="geometry" />
        </mxCell>
        <mxCell id="JzMBPSNkwDdgUZxuRiRF-193" value="" style="shape=cylinder3;whiteSpace=wrap;html=1;boundedLbl=1;backgroundOutline=1;size=15;rotation=-90;fillColor=#dae8fc;strokeColor=#6c8ebf;" parent="JzMBPSNkwDdgUZxuRiRF-192" vertex="1">
          <mxGeometry x="200" y="-200" width="40" height="440" as="geometry" />
        </mxCell>
        <mxCell id="JzMBPSNkwDdgUZxuRiRF-194" value="&lt;span style=&quot;text-wrap: wrap;&quot;&gt;Kafka&lt;/span&gt;" style="text;html=1;align=center;verticalAlign=middle;resizable=0;points=[];autosize=1;strokeColor=none;fillColor=none;" parent="JzMBPSNkwDdgUZxuRiRF-192" vertex="1">
          <mxGeometry x="195" y="5" width="50" height="30" as="geometry" />
        </mxCell>
        <mxCell id="JzMBPSNkwDdgUZxuRiRF-195" value="Create payment flow" style="text;html=1;align=center;verticalAlign=middle;resizable=0;points=[];autosize=1;strokeColor=none;fillColor=none;" parent="1" vertex="1">
          <mxGeometry x="30" y="5" width="130" height="30" as="geometry" />
        </mxCell>
        <mxCell id="UbQ19MGZ-QVVBDmHauCY-1" value="Keycloak" style="whiteSpace=wrap;html=1;aspect=fixed;fillColor=#ffe6cc;strokeColor=#d79b00;" vertex="1" parent="1">
          <mxGeometry x="230" y="-260" width="80" height="80" as="geometry" />
        </mxCell>
        <mxCell id="UbQ19MGZ-QVVBDmHauCY-6" value="&lt;div&gt;Get access token&lt;/div&gt;" style="edgeLabel;html=1;align=center;verticalAlign=middle;resizable=0;points=[];" vertex="1" connectable="0" parent="1">
          <mxGeometry x="179.99999999999991" y="-230" as="geometry" />
        </mxCell>
        <mxCell id="UbQ19MGZ-QVVBDmHauCY-10" value="Keycloak" style="whiteSpace=wrap;html=1;aspect=fixed;fillColor=#ffe6cc;strokeColor=#d79b00;" vertex="1" parent="1">
          <mxGeometry x="230" y="215" width="80" height="80" as="geometry" />
        </mxCell>
        <mxCell id="UbQ19MGZ-QVVBDmHauCY-15" value="&lt;div&gt;Get access token&lt;/div&gt;" style="edgeLabel;html=1;align=center;verticalAlign=middle;resizable=0;points=[];" vertex="1" connectable="0" parent="1">
          <mxGeometry x="30.00333333333326" y="340" as="geometry" />
        </mxCell>
        <mxCell id="UbQ19MGZ-QVVBDmHauCY-16" value="&lt;div&gt;Get access token&lt;/div&gt;" style="edgeLabel;html=1;align=center;verticalAlign=middle;resizable=0;points=[];" vertex="1" connectable="0" parent="1">
          <mxGeometry x="180.00333333333325" y="245" as="geometry" />
        </mxCell>
      </root>
    </mxGraphModel>
  </diagram>
</mxfile>
